<?xml version="1.0" standalone="no"?><!DOCTYPE svg PUBLIC "-//W3C//DTD SVG 1.1//EN" "http://www.w3.org/Graphics/SVG/1.1/DTD/svg11.dtd"><svg t="1666859104441" class="icon" viewBox="0 0 1024 1024" version="1.1" xmlns="http://www.w3.org/2000/svg" p-id="11577" xmlns:xlink="http://www.w3.org/1999/xlink" width="200" height="200"><path d="M512 571.733333l-209.066667 209.066667a40.448 40.448 0 0 1-29.866666 11.733333 40.448 40.448 0 0 1-29.866667-11.733333 40.448 40.448 0 0 1-11.733333-29.866667c0-12.074667 3.882667-22.058667 11.733333-29.866666l209.066667-209.066667-209.066667-209.066667a40.448 40.448 0 0 1-11.733333-29.866666c0-12.074667 3.882667-22.058667 11.733333-29.866667a40.448 40.448 0 0 1 29.866667-11.733333c12.074667 0 22.016 3.925333 29.866666 11.733333l209.066667 209.066667 209.066667-209.066667a40.448 40.448 0 0 1 29.866666-11.733333c12.074667 0 22.016 3.925333 29.866667 11.733333a40.448 40.448 0 0 1 11.733333 29.866667 40.448 40.448 0 0 1-11.733333 29.866666L571.733333 512l209.066667 209.066667a40.448 40.448 0 0 1 11.733333 29.866666 40.448 40.448 0 0 1-11.733333 29.866667 40.448 40.448 0 0 1-29.866667 11.733333 40.448 40.448 0 0 1-29.866666-11.733333L512 571.733333z" p-id="11578"></path></svg>